<svg xmlns="http://www.w3.org/2000/svg" viewBox="0 0 32 32">
  <rect width="32" height="32" fill="#3949ab" rx="6"/>
  <!-- Calculadora -->
  <rect x="8" y="6" width="16" height="20" fill="#fff" rx="2"/>
  <rect x="9" y="7" width="14" height="18" fill="#3949ab" rx="1"/>
  <!-- Tela -->
  <rect x="10" y="8" width="12" height="4" fill="#fff" rx="1"/>
  <!-- Botões -->
  <rect x="10" y="14" width="2" height="2" fill="#fff" rx="0.5"/>
  <rect x="13" y="14" width="2" height="2" fill="#fff" rx="0.5"/>
  <rect x="16" y="14" width="2" height="2" fill="#fff" rx="0.5"/>
  <rect x="19" y="14" width="2" height="2" fill="#fff" rx="0.5"/>
  <rect x="10" y="17" width="2" height="2" fill="#fff" rx="0.5"/>
  <rect x="13" y="17" width="2" height="2" fill="#fff" rx="0.5"/>
  <rect x="16" y="17" width="2" height="2" fill="#fff" rx="0.5"/>
  <rect x="19" y="17" width="2" height="5" fill="#fff" rx="0.5"/>
  <rect x="10" y="20" width="2" height="2" fill="#fff" rx="0.5"/>
  <rect x="13" y="20" width="5" height="2" fill="#fff" rx="0.5"/>
</svg>